<?xml version="1.0" encoding="UTF-8"?>
<svg width="120px" height="37px" viewBox="0 0 120 37" version="1.1" xmlns="http://www.w3.org/2000/svg" xmlns:xlink="http://www.w3.org/1999/xlink">
    <title>Logo/Dark/Horizontal</title>
    <g id="Design" stroke="none" stroke-width="1" fill="none" fill-rule="evenodd">
        <g id="Home" transform="translate(-20.000000, -16.000000)">
            <g id="Logo/Dark/Horizontal" transform="translate(20.000000, 16.000000)">
                <path d="M38.6146789,31.9052095 C36.9256044,31.8936664 35.3198487,32.6446329 34.23683,33.9526055 C35.4822205,35.1057688 37.1711768,35.6406167 38.8462227,35.4122784 C38.8462227,35.4122784 54.6413297,32.9048205 57.3243734,31.9967401 L57.3243734,31.9967401 L38.6146789,31.9052095 Z" id="Path"></path>
                <g id="Group-2" opacity="0.800000012" fill-rule="nonzero">
                    <path d="M1.50955727,23.7113368 C2.5939544,22.4060596 4.19950829,21.6578376 5.88740618,21.6711669 L24.5971007,21.7699237 L24.5971007,21.7699237 C25.7906255,21.3676706 27.6549112,19.163709 27.0462136,17.1018608 C24.9241265,14.4522895 14.9677427,2.28593987 14.9677427,2.28593987 C12.6809493,-0.496109987 7.9832357,-1.18018112 5.87069683,2.7484105 C-1.81560278,16.9332517 0.23248575,28.280643 0.28738789,28.5552349 C0.0725534289,26.5295172 0.430610864,24.9951745 1.50955727,23.7113368 Z" id="Path" fill="#8B278A"></path>
                    <path d="M27.0462136,17.094476 L27.0462136,17.094476 C27.6549112,19.1564829 25.7882384,21.3604445 24.5971007,21.7626976 C21.9116699,22.6707779 6.11894999,25.1710097 6.11894999,25.1710097 C4.44390411,25.399348 2.75494775,24.8645002 1.50955727,23.7113368 C0.437772013,24.9951745 0.0773275281,26.5295172 0.28738789,28.5480088 C0.517327828,29.9554828 0.913204648,31.3301689 1.46659038,32.6428008 C2.99191505,35.9595823 6.81358142,37.4409335 9.86423077,35.4682073 L25.6187579,25.2866274 C31.302323,21.6711669 27.0366654,17.0633216 27.0462136,17.094476 Z" id="Path" fill="#EB6519"></path>
                </g>
                <g id="Group-3" transform="translate(37.150018, 8.652431)" fill="#000000" fill-rule="nonzero">
                    <path d="M14.1898848,16.4384157 C13.692149,16.9344625 13.1329948,17.3635505 12.5263033,17.7150273 C11.8900349,18.082186 11.2042448,18.3540472 10.4904518,18.5220806 C8.46851766,19.0058367 6.34728976,18.8396067 4.42361441,18.0466528 C3.20404244,17.5477471 2.16188037,16.5910221 1.29712822,15.1764777 C0.432376075,13.7619334 1.60214182e-14,11.8347878 1.60214182e-14,9.39504119 C1.60214182e-14,6.95920752 0.432376075,5.03499674 1.29712822,3.62240886 C2.16188037,2.20982098 3.20404244,1.25309595 4.42361441,0.752233767 C5.6173011,0.255785442 6.89593184,0.000531582008 8.18703128,0.000940490157 C9.333514,-0.0156949846 10.4726188,0.188494422 11.5432778,0.602562059 C12.5370651,0.997728978 13.4384033,1.59740839 14.1898848,2.36340568 L10.435193,6.17856685 C9.70810316,5.44488201 8.95871593,5.07803959 8.18703128,5.07803959 C7.53968024,5.06623305 6.91638588,5.32546159 6.4652826,5.79411599 C5.86034388,6.43975865 5.55787452,7.64691478 5.55787452,9.41558437 C5.55787452,11.184254 5.86034388,12.3914101 6.4652826,13.0370527 C6.91638588,13.5057071 7.53968024,13.7649357 8.18703128,13.7531291 C8.96937992,13.7531291 9.71682824,13.3921562 10.435193,12.6702103 L14.1898848,16.4384157 Z" id="Path"></path>
                    <path d="M31.1543442,18.5895796 L25.7302543,18.5895796 L25.7302543,17.0869931 C25.1695631,17.6410455 24.4983517,18.0682345 23.761295,18.3401268 C23.0387655,18.6241832 22.271083,18.7733447 21.4956832,18.7803377 C19.8204683,18.7803377 18.4535394,18.2579541 17.3948967,17.2131869 C16.731491,16.5701957 16.2376516,15.770263 15.9581672,14.8859385 C15.6875458,13.9321907 15.5591401,12.9431036 15.5771721,11.9511992 L15.5771721,0.200502767 L21.1321383,0.200502767 L21.1321383,11.2145796 C21.1321383,12.1390225 21.3735321,12.7875999 21.850503,13.1661813 C22.2754559,13.5241861 22.8093262,13.7241314 23.3628498,13.732586 C23.9158426,13.7247069 24.4499093,13.5281751 24.878105,13.1749855 C25.3550759,12.8032518 25.5935614,12.1497832 25.5935614,11.2145796 L25.5935614,0.200502767 L31.1514359,0.200502767 L31.1543442,18.5895796 Z" id="Path"></path>
                    <path d="M46.8885678,9.41558437 C47.5119877,8.50345821 47.8327353,7.41535453 47.8047009,6.30769538 C47.8090355,5.25843445 47.5488204,4.22530133 47.0485275,3.30545701 C46.5337269,2.3626366 45.7708232,1.58164148 44.8439912,1.04864244 C43.7966128,0.458623018 42.6112736,0.163654873 41.4121273,0.194633288 L34.0772453,0.194633288 L34.0772453,18.5837101 L39.3820926,18.5837101 L39.3820926,12.1536962 L39.9114139,12.1536962 L42.947741,18.5895796 L49.0552954,18.5895796 L45.1929943,11.0502342 C45.858766,10.622587 46.4348526,10.0671998 46.8885678,9.41558437 L46.8885678,9.41558437 Z M38.8324127,4.57032968 L41.223084,4.57032968 C41.5625472,4.56326723 41.8977767,4.64732839 42.1944759,4.81391304 C42.4622513,4.96372358 42.6829427,5.18641672 42.8314066,5.45662097 C42.9722274,5.71768406 43.045266,6.01046928 43.0437531,6.30769538 C43.0456463,6.60756799 42.9704921,6.90282237 42.8255899,7.16463927 C42.6760141,7.43248971 42.455463,7.65300882 42.1886592,7.80147772 C41.89196,7.96806237 41.5567305,8.05212353 41.2172672,8.04506108 L38.8265959,8.04506108 L38.8324127,4.57032968 Z" id="Shape"></path>
                    <polygon id="Path" points="60.4037132 0.200502767 57.4284617 9.74720991 54.4008597 0.200502767 48.5812329 0.200502767 55.2966344 18.5895796 59.5282971 18.5895796 66.2262484 0.200502767"></polygon>
                    <path d="M82.4403512,11.232188 L71.5456375,11.232188 C71.533758,11.9982653 71.8521253,12.7317976 72.4181452,13.2424845 C73.0571148,13.8136098 73.8922737,14.1096202 74.7448326,14.0671463 C75.4859764,14.0999938 76.2257979,13.9770709 76.917377,13.7061733 C77.507529,13.4167628 78.042977,13.0254391 78.4995244,12.549886 L81.823779,15.8749457 C80.9473597,16.7996086 79.9090764,17.5527991 78.7612768,18.0965434 C77.7259009,18.5582757 76.3870862,18.7891419 74.7448326,18.7891419 C68.9668923,18.7891419 66.0779221,15.6587532 66.0779221,9.39797593 C66.0779221,6.45149761 66.8302177,4.14870546 68.3348089,2.48959947 C69.8394,0.830493483 71.8044814,0.00191873661 74.230053,0.00387522952 C75.7826227,-0.0380742605 77.3155667,0.361604528 78.6536675,1.1572278 C79.873456,1.90225149 80.8532995,2.98781711 81.4747759,4.28272522 C82.1296893,5.67032696 82.4571978,7.19213793 82.4316261,8.72885535 L82.4403512,11.232188 Z M76.9522773,7.48159113 C76.9645541,6.98715247 76.8650946,6.49638423 76.6614414,6.04650358 C76.4723946,5.62425029 76.1637555,5.26788287 75.7743918,5.02227954 C74.8267956,4.4743848 73.6623941,4.4743848 72.7147979,5.02227954 C72.3254172,5.26374326 72.0204068,5.62179038 71.8422901,6.04650358 C71.6386368,6.49638423 71.5391774,6.98715247 71.5514542,7.48159113 L76.9522773,7.48159113 Z" id="Shape"></path>
                </g>
                <g id="Group" style="mix-blend-mode: multiply;" transform="translate(47.279888, 30.694984)" fill="#000000" fill-rule="nonzero">
                    <polygon id="Path" points="0.548149047 5.19876425 0.028401505 5.19876425 0.028401505 0.286591194 0.548149047 0.286591194"></polygon>
                    <polygon id="Path" points="6.93280738 5.19876425 6.43862119 5.19876425 3.85124408 1.25526943 3.85124408 5.19876425 3.33149654 5.19876425 3.33149654 0.286591194 3.82284258 0.286591194 6.41021969 4.21575646 6.41021969 0.286591194 6.93280738 0.286591194"></polygon>
                    <polygon id="Path" points="12.5563054 0.748003015 11.1362301 0.748003015 11.1362301 5.19876425 10.6221629 5.19876425 10.6221629 0.748003015 9.20208763 0.748003015 9.20208763 0.286591194 12.5563054 0.286591194"></polygon>
                    <polygon id="Path" points="17.8617065 5.19876425 14.8369462 5.19876425 14.8369462 0.286591194 17.8617065 0.286591194 17.8617065 0.753734839 15.3566938 0.753734839 15.3566938 2.49047747 17.4953271 2.49047747 17.4953271 2.95762112 15.3566938 2.95762112 15.3566938 4.73735243 17.8617065 4.73735243"></polygon>
                    <path d="M23.7266173,5.19876425 L23.1159849,5.19876425 L22.0054861,3.01780527 L20.8381842,3.01780527 L20.8381842,5.19876425 L20.3155966,5.19876425 L20.3155966,0.286591194 L22.1844156,0.286591194 C22.4444295,0.281678439 22.7020388,0.337591336 22.9370555,0.449948174 C23.1502263,0.555537262 23.3279859,0.721954547 23.4482826,0.928555467 C23.5726143,1.14822138 23.6354434,1.39785501 23.6300522,1.65076528 C23.6452491,1.96835413 23.5441607,2.28049035 23.3460371,2.52773433 C23.1481786,2.76125561 22.8761445,2.91825833 22.5763564,2.97195068 L23.7266173,5.19876425 Z M23.1074645,1.65363119 C23.1218817,1.40226681 23.0263804,1.1571581 22.8461707,0.983007794 C22.6470783,0.817583259 22.393645,0.733703144 22.136133,0.748003015 L20.8381842,0.748003015 L20.8381842,2.55352754 L22.136133,2.55352754 C22.3086203,2.55698788 22.4798991,2.52378843 22.6388397,2.45608653 C22.7819812,2.39228153 22.9027347,2.28641288 22.985338,2.15229986 C23.0715632,2.00091384 23.1138815,1.82811921 23.1074645,1.65363119 L23.1074645,1.65363119 Z" id="Shape"></path>
                    <path d="M29.5744872,5.19876425 L29.0206578,5.19876425 L28.6287171,4.08679042 L26.4986042,4.08679042 L26.1066634,5.19876425 L25.5613545,5.19876425 L27.3478092,0.286591194 L27.7851924,0.286591194 L29.5744872,5.19876425 Z M28.4781891,3.63111042 L27.5750212,1.0317283 L26.6548125,3.63111042 L28.4781891,3.63111042 Z" id="Shape"></path>
                    <path d="M34.6214346,4.63991142 C34.43864,4.82428399 34.2264666,4.97638068 33.9937614,5.0898596 C33.7608293,5.1951485 33.5076632,5.24702401 33.2524821,5.24175293 C32.7841465,5.25226047 32.3321776,5.06776004 32.0028159,4.73162061 C31.8957952,4.6259597 31.8057257,4.50413309 31.7358417,4.3705157 C31.6725277,4.24013868 31.6285101,4.10109465 31.6051948,3.95782438 C31.5755377,3.79792019 31.557502,3.63604262 31.5512319,3.47348527 C31.5512319,3.30726237 31.5512319,3.06365986 31.5512319,2.73981181 C31.5512319,2.31852276 31.5512319,2.00613836 31.5739531,1.79692678 C31.5843902,1.60082907 31.6246216,1.4075133 31.6932395,1.2237444 C31.7642424,1.04231066 31.8726733,0.878189084 32.0113363,0.742271191 C32.340698,0.406131762 32.792667,0.221631329 33.2610025,0.232138867 C33.5182981,0.227010812 33.7734854,0.279881935 34.0079621,0.386898111 C34.2382594,0.500376095 34.4484151,0.65143384 34.6299551,0.833980373 L34.2806166,1.18648754 C34.1418401,1.03868344 33.9808096,0.91391342 33.8034713,0.816784902 C33.6344634,0.734966154 33.4483432,0.695634547 33.2610025,0.702148424 C33.1025134,0.702008566 32.9454314,0.73215403 32.798058,0.790991694 C32.6553896,0.849130632 32.5259117,0.935907179 32.4174778,1.04605786 C32.3199693,1.14604999 32.2436317,1.2650077 32.193106,1.39569911 C32.1374779,1.55246142 32.1049431,1.71661101 32.0965408,1.88290414 C32.0965408,2.07492024 32.0738196,2.35864552 32.0738196,2.74267772 C32.0640408,3.11911454 32.0839849,3.4957394 32.1334628,3.86898111 C32.1690226,4.08446085 32.2679795,4.2841698 32.4174778,4.4421635 C32.6409314,4.67260011 32.9502185,4.79743711 33.269523,4.78607293 C33.4032573,4.7876049 33.5364227,4.7682706 33.6643039,4.72875469 C33.7748849,4.69516263 33.8794062,4.64387935 33.9738803,4.57686136 C34.0848292,4.49325762 34.190147,4.40230317 34.289137,4.30459973 L34.6214346,4.63991142 Z" id="Path"></path>
                    <polygon id="Path" points="39.9637577 0.748003015 38.5436825 0.748003015 38.5436825 5.19876425 38.0296152 5.19876425 38.0296152 0.748003015 36.60954 0.748003015 36.60954 0.286591194 39.9523971 0.286591194"></polygon>
                    <polygon id="Path" points="42.7641461 5.19876425 42.2443986 5.19876425 42.2443986 0.286591194 42.7641461 0.286591194"></polygon>
                    <path d="M48.7739046,2.73981181 C48.7739046,3.16110087 48.7739046,3.47635118 48.7511834,3.68269684 C48.7400159,3.87897016 48.6988197,4.07231817 48.6290569,4.25587923 C48.558933,4.43610676 48.4503277,4.59853548 48.3109601,4.73162061 C47.6166101,5.4123255 46.5116579,5.4123255 45.8173079,4.73162061 C45.7102873,4.6259597 45.6202177,4.50413309 45.5503338,4.3705157 C45.4883023,4.23962173 45.4443442,4.10076558 45.4196869,3.95782438 C45.3909827,3.79784928 45.3738963,3.63597227 45.3685641,3.47348527 C45.3685641,3.30726237 45.3685641,3.06365986 45.3685641,2.73981181 C45.3685641,2.31852276 45.3685641,2.00613836 45.3884452,1.79692678 C45.3988822,1.60082907 45.4391136,1.4075133 45.5077315,1.2237444 C45.5787345,1.04231066 45.6871653,0.878189084 45.8258284,0.742271191 C46.5201783,0.0615663017 47.6251306,0.0615663017 48.3194805,0.742271191 C48.4588481,0.875356321 48.5674535,1.03778504 48.6375774,1.21801257 C48.7073402,1.40157363 48.7485363,1.59492164 48.7597038,1.79119496 C48.7653841,2.00613836 48.7739046,2.31852276 48.7739046,2.73981181 Z M48.2513169,2.73981181 C48.2513169,2.4245615 48.2513169,2.18955672 48.2513169,2.03766339 C48.2449536,1.90020822 48.2297744,1.76331322 48.2058745,1.62783798 C48.1895231,1.51771961 48.1549607,1.41115412 48.1036291,1.31258767 C48.0569931,1.2183906 47.9945324,1.13306134 47.9190193,1.06038742 C47.811444,0.946454215 47.6806192,0.857468718 47.535599,0.79958943 C47.3895636,0.739242221 47.2333011,0.708095598 47.0754946,0.707880248 C46.9179992,0.708505194 46.7619875,0.738630075 46.6153902,0.796723518 C46.4714635,0.856434772 46.3417427,0.946304672 46.23481,1.06038742 C46.0865187,1.21126821 45.9874277,1.40424862 45.950795,1.61350842 C45.8674773,2.36106566 45.8674773,3.11569205 45.950795,3.86324929 C45.9880793,4.07312165 46.087034,4.26683497 46.23481,4.41923621 C46.3433666,4.53066561 46.4727139,4.61930271 46.6153902,4.68003419 C46.9101543,4.8023325 47.2408349,4.8023325 47.535599,4.68003419 C47.6795082,4.62004628 47.8099237,4.53133915 47.9190193,4.41923621 C47.9928009,4.3428957 48.0550083,4.25598117 48.1036291,4.16130413 C48.1545246,4.06255217 48.1890628,3.95606166 48.2058745,3.84605382 C48.2297744,3.71057858 48.2449536,3.57368358 48.2513169,3.43622841 C48.2513169,3.28337977 48.2513169,3.05124091 48.2513169,2.73981181 Z" id="Shape"></path>
                    <polygon id="Path" points="54.9682728 5.19876425 54.4740867 5.19876425 51.8895497 1.25526943 51.8895497 5.19876425 51.366962 5.19876425 51.366962 0.286591194 51.858308 0.286591194 54.4485253 4.21575646 54.4485253 0.286591194 54.9682728 0.286591194"></polygon>
                    <path d="M60.6911761,3.84605382 C60.7000986,4.10669431 60.631874,4.36410882 60.4952057,4.5854591 C60.3489699,4.80013078 60.1449941,4.96817228 59.9072946,5.06979822 C59.6258176,5.18782105 59.3230694,5.24540625 59.0183275,5.23888702 C58.7969874,5.24070435 58.5760905,5.21860645 58.3594126,5.17297104 C58.1714571,5.12960054 57.9906716,5.05914001 57.8226241,4.96375947 C57.6491105,4.8609537 57.4896582,4.73570325 57.348319,4.59119092 L57.7033378,4.23008602 C57.8239067,4.35171072 57.9583305,4.45849364 58.103799,4.54820224 C58.2349328,4.62715784 58.3778286,4.68425397 58.5269814,4.71729105 C58.6930291,4.7536746 58.8626237,4.77098018 59.0325282,4.76887746 C59.3358878,4.7892858 59.6369095,4.70322272 59.8845734,4.52527495 C60.0882975,4.36622537 60.2026973,4.11717991 60.1913096,3.85751747 C60.1923442,3.73550367 60.1721571,3.61425276 60.1316665,3.49927847 C60.0972031,3.39870849 60.0375157,3.30885893 59.9584173,3.23848049 C59.8886999,3.17506766 59.8077631,3.12548173 59.7198446,3.09231898 C59.5896074,3.0537228 59.4566982,3.02498394 59.3222236,3.00634162 L58.7541935,2.91463244 C58.4268696,2.87766242 58.1161568,2.74967031 57.8567059,2.5449298 C57.6031941,2.30822356 57.4668993,1.97017019 57.4846462,1.62210616 C57.4801706,1.36765582 57.5450103,1.11684909 57.6720961,0.897030436 C57.8013234,0.682419304 57.9912398,0.511740777 58.217405,0.406959495 C58.4774809,0.287336779 58.7609806,0.228555034 59.046729,0.235004779 C59.3177702,0.229919901 59.5876803,0.271597504 59.8448113,0.358238992 C60.0873793,0.452345171 60.3093098,0.593526954 60.4980459,0.773796223 L60.1657483,1.11483974 C60.0210069,0.97727663 59.8512688,0.869254916 59.6658818,0.796723518 C59.4609561,0.722758709 59.244455,0.686833372 59.0268479,0.690684777 C58.8379187,0.686875492 58.6505656,0.726057348 58.4786989,0.805321254 C58.3307167,0.871936642 58.2067293,0.983036174 58.1236801,1.12343748 C58.0392194,1.2682273 57.9968937,1.43409959 58.0015536,1.60204477 C57.9835104,1.81626817 58.0629275,2.02715629 58.217405,2.17522716 C58.4076855,2.32555836 58.6360032,2.4189055 58.8763199,2.44462288 L59.4102682,2.52773433 C59.5905048,2.55108216 59.7676557,2.59433001 59.9385362,2.65670036 C60.0711203,2.70789086 60.1940673,2.78155277 60.3020755,2.87450967 C60.5727076,3.12090854 60.7161634,3.4791027 60.6911761,3.84605382 L60.6911761,3.84605382 Z" id="Path"></path>
                </g>
            </g>
        </g>
    </g>
</svg>