<svg version="1.1" id="flake" xmlns="http://www.w3.org/2000/svg" x="0" y="0" viewBox="0 0 180 169.5" style="enable-background:new 0 0 180 169.5" xml:space="preserve"><style>.st1{fill:#000}</style><path style="fill:none" d="M0 0h180v169.5H0z"/><path class="st1" d="M189.1 121.5c-2.6-1.5-6-.6-7.5 2l-27.5 47.9c-.6 1-1.8 1.3-2.8.8-.3-.2-.6-.4-.8-.8l-13.2-23.1c-1.5-2.6-4.9-3.6-7.5-2.1-2.6 1.5-3.6 4.9-2.1 7.5l19.7 34.6c1.5 2.6 4.9 3.6 7.5 2.1.9-.5 1.6-1.2 2-2l34.1-59.3c1.6-2.7.8-6.1-1.9-7.6zM100.3 131.3c-2.6 1.5-3.5 4.9-2 7.5l27.7 47.8c.6 1 .2 2.2-.7 2.8-.3.2-.7.3-1.1.3l-26.5-.1c-3 0-5.5 2.4-5.5 5.5 0 3 2.4 5.5 5.5 5.5l39.8.2c3 0 5.5-2.4 5.5-5.5 0-1-.3-1.9-.7-2.8l-34.5-59.2c-1.5-2.6-4.9-3.5-7.5-2zM178.5 186.7l13.4-22.9c1.5-2.6.7-6-2-7.5-2.6-1.5-6-.7-7.5 2l-20.1 34.3c-1.5 2.6-.7 6 2 7.5.8.5 1.8.8 2.8.8l68.5-.1c3 0 5.5-2.5 5.5-5.5s-2.5-5.5-5.5-5.5l-55.2.1c-1.1 0-2.1-.9-2.1-2.1 0-.5.1-.8.2-1.1zM115.6 286.8c2.6 1.5 6 .6 7.5-2l27.5-47.9c.6-1 1.8-1.3 2.8-.8.3.2.6.4.8.8l13.1 23.1c1.5 2.6 4.9 3.6 7.5 2.1 2.6-1.5 3.6-4.9 2.1-7.5L157.3 220c-1.5-2.6-4.9-3.6-7.5-2.1-.9.5-1.6 1.2-2 2l-34.2 59.4c-1.6 2.6-.7 6 2 7.5zM204.4 277c2.6-1.5 3.5-4.9 2-7.5l-27.7-47.8c-.6-1-.2-2.2.7-2.8.3-.2.7-.3 1.1-.3l26.5.1c3 0 5.5-2.4 5.5-5.5 0-3-2.4-5.5-5.5-5.5l-39.8-.2c-3 0-5.5 2.4-5.5 5.5 0 1 .3 1.9.7 2.8l34.3 59.2c1.7 2.6 5.1 3.5 7.7 2zM122.2 250.1l20.1-34.3c1.5-2.6.7-6-2-7.5-.8-.5-1.8-.8-2.8-.8l-68.4.1c-3 0-5.5 2.5-5.5 5.5s2.5 5.5 5.5 5.5l55.2-.1c1.1 0 2.1.9 2.1 2.1 0 .4-.1.7-.3 1l-13.4 22.9c-1.5 2.6-.7 6 2 7.5 2.6 1.6 6 .7 7.5-1.9z" transform="translate(-62.475 -119.422)"/></svg>