<svg width="130" height="32" viewBox="0 0 130 32" fill="none" xmlns="http://www.w3.org/2000/svg">
<g clip-path="url(#clip0)">
<path fill-rule="evenodd" clip-rule="evenodd" d="M74.5209 9.71576C77.622 9.71576 80.1439 10.484 82.0863 12.0201C84.0276 13.5568 85.1298 15.6288 85.3904 18.2375H78.7383C78.5061 17.2525 78.0567 16.5277 77.3904 16.0636C76.7235 15.6003 75.782 15.3679 74.5643 15.3679C73.1146 15.3679 71.9843 15.8395 71.173 16.781C70.3613 17.7234 69.9557 19.0495 69.9557 20.7592C69.9557 22.4699 70.3613 23.796 71.173 24.7375C71.9843 25.6799 73.1146 26.1505 74.5643 26.1505C75.782 26.1505 76.7235 25.9331 77.3904 25.4984C78.0567 25.0636 78.5061 24.3829 78.7383 23.4549H85.3904C85.1298 26.006 84.0276 28.0351 82.0863 29.5418C80.1439 31.0495 77.622 31.8027 74.5209 31.8027C72.26 31.8027 70.2817 31.3462 68.5861 30.4332C66.8904 29.5201 65.5861 28.2308 64.673 26.5636C63.76 24.8973 63.3035 22.9625 63.3035 20.7592C63.3035 18.5568 63.76 16.6221 64.673 14.9549C65.5861 13.2886 66.8904 11.9984 68.5861 11.0853C70.2817 10.1723 72.26 9.71576 74.5209 9.71576ZM35.0889 9.71576C37.4365 9.71576 39.487 10.1873 41.2409 11.1288C42.9944 12.0712 44.3422 13.3829 45.2844 15.0636C46.2261 16.7451 46.6974 18.6438 46.6974 20.7592C46.6974 22.8753 46.2261 24.7742 45.2844 26.4549C44.3422 28.1364 42.9944 29.4481 41.2409 30.3897C39.487 31.3314 37.4365 31.8027 35.0889 31.8027C32.7409 31.8027 30.6826 31.3314 28.915 30.3897C27.1465 29.4481 25.7913 28.1364 24.8496 26.4549C23.9074 24.7742 23.4365 22.8753 23.4365 20.7592C23.4365 18.6438 23.9074 16.7451 24.8496 15.0636C25.7913 13.3829 27.1465 12.0712 28.915 11.1288C30.6826 10.1873 32.7409 9.71576 35.0889 9.71576ZM57.2167 4.06359V10.281H61.9559V15.5418H57.2167V22.4984C57.2167 23.919 57.4626 24.8679 57.9561 25.3462C58.4485 25.8245 59.1733 26.0636 60.13 26.0636C61.0572 26.0636 61.8257 26.0201 62.4341 25.9332V31.2375C61.1585 31.4692 59.6802 31.5853 57.9994 31.5853C55.8833 31.5853 54.115 31.0786 52.695 30.0636C51.2746 29.0495 50.5648 26.9916 50.5648 23.8897V15.5418H47.2602V10.281H50.5648V4.06359H57.2167ZM94.5643 0.802716V13.3245C95.173 12.1655 96.0567 11.2742 97.2165 10.6505C98.3754 10.0277 99.7524 9.71576 101.347 9.71576C106.448 9.71576 108.999 12.571 108.999 18.281V31.2375H102.303V20.4549C102.303 18.6579 102.021 17.3536 101.456 16.5418C100.89 15.7308 99.9407 15.3245 98.6078 15.3245C97.2743 15.3245 96.2667 15.7451 95.5861 16.5853C94.9046 17.4264 94.5643 18.6579 94.5643 20.281V31.2375H87.912V0.802716H94.5643ZM13.4348 9.71576C18.5361 9.71576 21.087 12.571 21.087 18.281V31.2375H14.3913V20.4549C14.3913 18.6579 14.1087 17.3536 13.5435 16.5418C12.9783 15.7308 12.0285 15.3245 10.6957 15.3245C9.36196 15.3245 8.35456 15.7451 7.67391 16.5853C6.99239 17.4264 6.65217 18.6579 6.65217 20.281V31.2375H0V10.281H6.65217V13.3245C7.26087 12.1655 8.14457 11.2742 9.30435 10.6505C10.4633 10.0277 11.8402 9.71576 13.4348 9.71576ZM35.0889 15.3245C33.5235 15.3245 32.2987 15.8245 31.415 16.8245C30.5304 17.8245 30.0889 19.1364 30.0889 20.7592C30.0889 22.3829 30.5304 23.694 31.415 24.694C32.2987 25.694 33.5235 26.194 35.0889 26.194C36.6248 26.194 37.8422 25.694 38.7409 24.694C39.6391 23.694 40.0889 22.3829 40.0889 20.7592C40.0889 19.1364 39.6391 17.8245 38.7409 16.8245C37.8422 15.8245 36.6248 15.3245 35.0889 15.3245ZM112.365 11.9714C118.145 9.85228 117.359 11.2884 116.686 14.991C119.648 12.7023 121.264 11.4905 121.544 19.7149C121.129 15.8329 120.68 15.0812 118.659 21.1538C118.84 18.7162 119.475 14.9397 116.707 18.0982C117.872 14.251 114.448 16.8003 112.222 17.8218C115.621 13.7016 115.718 12.8351 111.288 14.4012C116.293 11.4234 116.772 10.8773 112.365 11.9714ZM125.494 3.36663C122.33 6.3288 122.824 6.76641 128.453 4.7675C126.481 6.27272 123.031 7.91272 127.223 8.17924C123.463 9.60272 127.572 10.7608 129.74 11.9008C124.401 11.721 123.656 12.1732 127.599 14.7288C122.187 12.5792 121.462 12.5331 125.017 15.3571C119.828 12.2534 121.174 11.7595 124.862 10.281C121.331 8.95445 118.975 8.7525 125.494 3.36663ZM115.362 0.197281C117.887 4.90445 118.652 5.32185 118.882 0.628585C119.74 6.38902 120.065 7.03902 120.722 2.54619C120.479 8.88706 119.947 8.46098 116.596 5.38641C117.449 9.33598 118.1 11.4455 110.088 8.11293C114.577 9.45945 113.948 8.64032 109.839 4.89098C111.838 5.8688 115.281 8.00098 113.407 4.24228C116.525 6.77902 115.464 2.64402 115.362 0.197281Z" fill="black"/>
</g>
<defs>
<clipPath id="clip0">
<rect width="129.74" height="31.6054" fill="white" transform="translate(0 0.197281)"/>
</clipPath>
</defs>
</svg>
